<?xml version="1.0" standalone="no"?>
<!DOCTYPE svg PUBLIC "-//W3C//DTD SVG 20010904//EN"
 "http://www.w3.org/TR/2001/REC-SVG-20010904/DTD/svg10.dtd">
<svg version="1.0" xmlns="http://www.w3.org/2000/svg"
 width="200.000000pt" height="200.000000pt" viewBox="0 0 200.000000 200.000000"
 preserveAspectRatio="xMidYMid meet">

<g transform="translate(0.000000,200.000000) scale(0.100000,-0.100000)"
fill="#000000" stroke="none">
<path d="M417 1493 c-4 -3 -7 -37 -7 -75 0 -80 -24 -63 210 -144 91 -32 171
-62 178 -67 9 -7 12 -90 12 -353 0 -188 3 -345 8 -347 4 -2 89 25 190 61 l182
65 0 282 c0 214 3 285 13 292 6 5 86 35 177 67 236 81 211 63 208 148 l-3 73
-581 3 c-319 1 -584 -1 -587 -5z"/>
</g>
</svg>
